<?xml version="1.0" encoding="UTF-8"?>
<svg id="grid" xmlns="http://www.w3.org/2000/svg" viewBox="0 0 484 396">
  <defs>
    <style>
      .cls-1 {
        fill: #000;
        stroke-width: 0px;
      }
    </style>
  </defs>
  <g id="main">
    <circle class="cls-1" cx="22" cy="44" r="1"/>
    <circle class="cls-1" cx="22" cy="66" r="1"/>
    <circle class="cls-1" cx="22" cy="88" r="1"/>
    <circle class="cls-1" cx="22" cy="110" r="1"/>
    <circle class="cls-1" cx="22" cy="132" r="1"/>
    <circle class="cls-1" cx="22" cy="154" r="1"/>
    <circle class="cls-1" cx="22" cy="176" r="1"/>
    <circle class="cls-1" cx="22" cy="198" r="1"/>
    <circle class="cls-1" cx="22" cy="220" r="1"/>
    <circle class="cls-1" cx="22" cy="242" r="1"/>
    <circle class="cls-1" cx="22" cy="264" r="1"/>
    <circle class="cls-1" cx="22" cy="286" r="1"/>
    <circle class="cls-1" cx="22" cy="308" r="1"/>
    <circle class="cls-1" cx="22" cy="330" r="1"/>
    <circle class="cls-1" cx="44" cy="22" r="1"/>
    <circle class="cls-1" cx="66" cy="22" r="1"/>
    <circle class="cls-1" cx="44" cy="44" r="1"/>
    <circle class="cls-1" cx="66" cy="44" r="1"/>
    <circle class="cls-1" cx="44" cy="66" r="1"/>
    <circle class="cls-1" cx="44" cy="88" r="1"/>
    <circle class="cls-1" cx="66" cy="66" r="1"/>
    <circle class="cls-1" cx="66" cy="88" r="1"/>
    <circle class="cls-1" cx="44" cy="110" r="1"/>
    <circle class="cls-1" cx="66" cy="110" r="1"/>
    <circle class="cls-1" cx="44" cy="132" r="1"/>
    <circle class="cls-1" cx="44" cy="154" r="1"/>
    <circle class="cls-1" cx="66" cy="132" r="1"/>
    <circle class="cls-1" cx="66" cy="154" r="1"/>
    <circle class="cls-1" cx="44" cy="176" r="1"/>
    <circle class="cls-1" cx="66" cy="176" r="1"/>
    <circle class="cls-1" cx="44" cy="198" r="1"/>
    <circle class="cls-1" cx="44" cy="220" r="1"/>
    <circle class="cls-1" cx="66" cy="198" r="1"/>
    <circle class="cls-1" cx="66" cy="220" r="1"/>
    <circle class="cls-1" cx="44" cy="242" r="1"/>
    <circle class="cls-1" cx="66" cy="242" r="1"/>
    <circle class="cls-1" cx="44" cy="264" r="1"/>
    <circle class="cls-1" cx="44" cy="286" r="1"/>
    <circle class="cls-1" cx="66" cy="264" r="1"/>
    <circle class="cls-1" cx="66" cy="286" r="1"/>
    <circle class="cls-1" cx="44" cy="308" r="1"/>
    <circle class="cls-1" cx="66" cy="308" r="1"/>
    <circle class="cls-1" cx="44" cy="330" r="1"/>
    <circle class="cls-1" cx="66" cy="330" r="1"/>
    <circle class="cls-1" cx="22" cy="22" r="1"/>
    <circle class="cls-1" cx="88" cy="44" r="1"/>
    <circle class="cls-1" cx="88" cy="66" r="1"/>
    <circle class="cls-1" cx="88" cy="88" r="1"/>
    <circle class="cls-1" cx="88" cy="110" r="1"/>
    <circle class="cls-1" cx="88" cy="132" r="1"/>
    <circle class="cls-1" cx="88" cy="154" r="1"/>
    <circle class="cls-1" cx="88" cy="176" r="1"/>
    <circle class="cls-1" cx="88" cy="198" r="1"/>
    <circle class="cls-1" cx="88" cy="220" r="1"/>
    <circle class="cls-1" cx="88" cy="242" r="1"/>
    <circle class="cls-1" cx="88" cy="264" r="1"/>
    <circle class="cls-1" cx="88" cy="286" r="1"/>
    <circle class="cls-1" cx="88" cy="308" r="1"/>
    <circle class="cls-1" cx="88" cy="330" r="1"/>
    <circle class="cls-1" cx="110" cy="22" r="1"/>
    <circle class="cls-1" cx="132" cy="22" r="1"/>
    <circle class="cls-1" cx="110" cy="44" r="1"/>
    <circle class="cls-1" cx="132" cy="44" r="1"/>
    <circle class="cls-1" cx="110" cy="66" r="1"/>
    <circle class="cls-1" cx="110" cy="88" r="1"/>
    <circle class="cls-1" cx="132" cy="66" r="1"/>
    <circle class="cls-1" cx="132" cy="88" r="1"/>
    <circle class="cls-1" cx="110" cy="110" r="1"/>
    <circle class="cls-1" cx="132" cy="110" r="1"/>
    <circle class="cls-1" cx="110" cy="132" r="1"/>
    <circle class="cls-1" cx="110" cy="154" r="1"/>
    <circle class="cls-1" cx="132" cy="132" r="1"/>
    <circle class="cls-1" cx="132" cy="154" r="1"/>
    <circle class="cls-1" cx="110" cy="176" r="1"/>
    <circle class="cls-1" cx="132" cy="176" r="1"/>
    <circle class="cls-1" cx="110" cy="198" r="1"/>
    <circle class="cls-1" cx="110" cy="220" r="1"/>
    <circle class="cls-1" cx="132" cy="198" r="1"/>
    <circle class="cls-1" cx="132" cy="220" r="1"/>
    <circle class="cls-1" cx="110" cy="242" r="1"/>
    <circle class="cls-1" cx="132" cy="242" r="1"/>
    <circle class="cls-1" cx="110" cy="264" r="1"/>
    <circle class="cls-1" cx="110" cy="286" r="1"/>
    <circle class="cls-1" cx="132" cy="264" r="1"/>
    <circle class="cls-1" cx="132" cy="286" r="1"/>
    <circle class="cls-1" cx="110" cy="308" r="1"/>
    <circle class="cls-1" cx="132" cy="308" r="1"/>
    <circle class="cls-1" cx="110" cy="330" r="1"/>
    <circle class="cls-1" cx="132" cy="330" r="1"/>
    <circle class="cls-1" cx="88" cy="22" r="1"/>
    <circle class="cls-1" cx="154" cy="44" r="1"/>
    <circle class="cls-1" cx="154" cy="66" r="1"/>
    <circle class="cls-1" cx="154" cy="88" r="1"/>
    <circle class="cls-1" cx="154" cy="110" r="1"/>
    <circle class="cls-1" cx="154" cy="132" r="1"/>
    <circle class="cls-1" cx="154" cy="154" r="1"/>
    <circle class="cls-1" cx="154" cy="176" r="1"/>
    <circle class="cls-1" cx="154" cy="198" r="1"/>
    <circle class="cls-1" cx="154" cy="220" r="1"/>
    <circle class="cls-1" cx="154" cy="242" r="1"/>
    <circle class="cls-1" cx="154" cy="264" r="1"/>
    <circle class="cls-1" cx="154" cy="286" r="1"/>
    <circle class="cls-1" cx="154" cy="308" r="1"/>
    <circle class="cls-1" cx="154" cy="330" r="1"/>
    <circle class="cls-1" cx="176" cy="22" r="1"/>
    <circle class="cls-1" cx="198" cy="22" r="1"/>
    <circle class="cls-1" cx="176" cy="44" r="1"/>
    <circle class="cls-1" cx="198" cy="44" r="1"/>
    <circle class="cls-1" cx="176" cy="66" r="1"/>
    <circle class="cls-1" cx="176" cy="88" r="1"/>
    <circle class="cls-1" cx="198" cy="66" r="1"/>
    <circle class="cls-1" cx="198" cy="88" r="1"/>
    <circle class="cls-1" cx="176" cy="110" r="1"/>
    <circle class="cls-1" cx="198" cy="110" r="1"/>
    <circle class="cls-1" cx="176" cy="132" r="1"/>
    <circle class="cls-1" cx="176" cy="154" r="1"/>
    <circle class="cls-1" cx="198" cy="132" r="1"/>
    <circle class="cls-1" cx="198" cy="154" r="1"/>
    <circle class="cls-1" cx="176" cy="176" r="1"/>
    <circle class="cls-1" cx="198" cy="176" r="1"/>
    <circle class="cls-1" cx="176" cy="198" r="1"/>
    <circle class="cls-1" cx="176" cy="220" r="1"/>
    <circle class="cls-1" cx="198" cy="198" r="1"/>
    <circle class="cls-1" cx="198" cy="220" r="1"/>
    <circle class="cls-1" cx="176" cy="242" r="1"/>
    <circle class="cls-1" cx="198" cy="242" r="1"/>
    <circle class="cls-1" cx="176" cy="264" r="1"/>
    <circle class="cls-1" cx="176" cy="286" r="1"/>
    <circle class="cls-1" cx="198" cy="264" r="1"/>
    <circle class="cls-1" cx="198" cy="286" r="1"/>
    <circle class="cls-1" cx="176" cy="308" r="1"/>
    <circle class="cls-1" cx="198" cy="308" r="1"/>
    <circle class="cls-1" cx="176" cy="330" r="1"/>
    <circle class="cls-1" cx="198" cy="330" r="1"/>
    <circle class="cls-1" cx="154" cy="22" r="1"/>
    <circle class="cls-1" cx="220" cy="44" r="1"/>
    <circle class="cls-1" cx="220" cy="66" r="1"/>
    <circle class="cls-1" cx="220" cy="88" r="1"/>
    <circle class="cls-1" cx="220" cy="110" r="1"/>
    <circle class="cls-1" cx="220" cy="132" r="1"/>
    <circle class="cls-1" cx="220" cy="154" r="1"/>
    <circle class="cls-1" cx="220" cy="176" r="1"/>
    <circle class="cls-1" cx="220" cy="198" r="1"/>
    <circle class="cls-1" cx="220" cy="220" r="1"/>
    <circle class="cls-1" cx="220" cy="242" r="1"/>
    <circle class="cls-1" cx="220" cy="264" r="1"/>
    <circle class="cls-1" cx="220" cy="286" r="1"/>
    <circle class="cls-1" cx="220" cy="308" r="1"/>
    <circle class="cls-1" cx="220" cy="330" r="1"/>
    <circle class="cls-1" cx="242" cy="22" r="1"/>
    <circle class="cls-1" cx="264" cy="22" r="1"/>
    <circle class="cls-1" cx="242" cy="44" r="1"/>
    <circle class="cls-1" cx="264" cy="44" r="1"/>
    <circle class="cls-1" cx="242" cy="66" r="1"/>
    <circle class="cls-1" cx="242" cy="88" r="1"/>
    <circle class="cls-1" cx="264" cy="66" r="1"/>
    <circle class="cls-1" cx="264" cy="88" r="1"/>
    <circle class="cls-1" cx="242" cy="110" r="1"/>
    <circle class="cls-1" cx="264" cy="110" r="1"/>
    <circle class="cls-1" cx="242" cy="132" r="1"/>
    <circle class="cls-1" cx="242" cy="154" r="1"/>
    <circle class="cls-1" cx="264" cy="132" r="1"/>
    <circle class="cls-1" cx="264" cy="154" r="1"/>
    <circle class="cls-1" cx="242" cy="176" r="1"/>
    <circle class="cls-1" cx="264" cy="176" r="1"/>
    <circle class="cls-1" cx="242" cy="198" r="1"/>
    <circle class="cls-1" cx="242" cy="220" r="1"/>
    <circle class="cls-1" cx="264" cy="198" r="1"/>
    <circle class="cls-1" cx="264" cy="220" r="1"/>
    <circle class="cls-1" cx="242" cy="242" r="1"/>
    <circle class="cls-1" cx="264" cy="242" r="1"/>
    <circle class="cls-1" cx="242" cy="264" r="1"/>
    <circle class="cls-1" cx="242" cy="286" r="1"/>
    <circle class="cls-1" cx="264" cy="264" r="1"/>
    <circle class="cls-1" cx="264" cy="286" r="1"/>
    <circle class="cls-1" cx="242" cy="308" r="1"/>
    <circle class="cls-1" cx="264" cy="308" r="1"/>
    <circle class="cls-1" cx="242" cy="330" r="1"/>
    <circle class="cls-1" cx="264" cy="330" r="1"/>
    <circle class="cls-1" cx="220" cy="22" r="1"/>
    <circle class="cls-1" cx="286" cy="44" r="1"/>
    <circle class="cls-1" cx="286" cy="66" r="1"/>
    <circle class="cls-1" cx="286" cy="88" r="1"/>
    <circle class="cls-1" cx="286" cy="110" r="1"/>
    <circle class="cls-1" cx="286" cy="132" r="1"/>
    <circle class="cls-1" cx="286" cy="154" r="1"/>
    <circle class="cls-1" cx="286" cy="176" r="1"/>
    <circle class="cls-1" cx="286" cy="198" r="1"/>
    <circle class="cls-1" cx="286" cy="220" r="1"/>
    <circle class="cls-1" cx="286" cy="242" r="1"/>
    <circle class="cls-1" cx="286" cy="264" r="1"/>
    <circle class="cls-1" cx="286" cy="286" r="1"/>
    <circle class="cls-1" cx="286" cy="308" r="1"/>
    <circle class="cls-1" cx="286" cy="330" r="1"/>
    <circle class="cls-1" cx="308" cy="22" r="1"/>
    <circle class="cls-1" cx="308" cy="44" r="1"/>
    <circle class="cls-1" cx="308" cy="66" r="1"/>
    <circle class="cls-1" cx="308" cy="88" r="1"/>
    <circle class="cls-1" cx="308" cy="110" r="1"/>
    <circle class="cls-1" cx="308" cy="132" r="1"/>
    <circle class="cls-1" cx="308" cy="154" r="1"/>
    <circle class="cls-1" cx="308" cy="176" r="1"/>
    <circle class="cls-1" cx="308" cy="198" r="1"/>
    <circle class="cls-1" cx="308" cy="220" r="1"/>
    <circle class="cls-1" cx="308" cy="242" r="1"/>
    <circle class="cls-1" cx="308" cy="264" r="1"/>
    <circle class="cls-1" cx="308" cy="286" r="1"/>
    <circle class="cls-1" cx="308" cy="308" r="1"/>
    <circle class="cls-1" cx="308" cy="330" r="1"/>
    <circle class="cls-1" cx="330" cy="22" r="1"/>
    <circle class="cls-1" cx="330" cy="44" r="1"/>
    <circle class="cls-1" cx="330" cy="66" r="1"/>
    <circle class="cls-1" cx="330" cy="88" r="1"/>
    <circle class="cls-1" cx="330" cy="110" r="1"/>
    <circle class="cls-1" cx="330" cy="132" r="1"/>
    <circle class="cls-1" cx="330" cy="154" r="1"/>
    <circle class="cls-1" cx="330" cy="176" r="1"/>
    <circle class="cls-1" cx="330" cy="198" r="1"/>
    <circle class="cls-1" cx="330" cy="220" r="1"/>
    <circle class="cls-1" cx="330" cy="242" r="1"/>
    <circle class="cls-1" cx="330" cy="264" r="1"/>
    <circle class="cls-1" cx="330" cy="286" r="1"/>
    <circle class="cls-1" cx="330" cy="308" r="1"/>
    <circle class="cls-1" cx="330" cy="330" r="1"/>
    <circle class="cls-1" cx="352" cy="22" r="1"/>
    <circle class="cls-1" cx="352" cy="44" r="1"/>
    <circle class="cls-1" cx="352" cy="66" r="1"/>
    <circle class="cls-1" cx="352" cy="88" r="1"/>
    <circle class="cls-1" cx="352" cy="110" r="1"/>
    <circle class="cls-1" cx="352" cy="132" r="1"/>
    <circle class="cls-1" cx="352" cy="154" r="1"/>
    <circle class="cls-1" cx="352" cy="176" r="1"/>
    <circle class="cls-1" cx="352" cy="198" r="1"/>
    <circle class="cls-1" cx="352" cy="220" r="1"/>
    <circle class="cls-1" cx="352" cy="242" r="1"/>
    <circle class="cls-1" cx="352" cy="264" r="1"/>
    <circle class="cls-1" cx="352" cy="286" r="1"/>
    <circle class="cls-1" cx="352" cy="308" r="1"/>
    <circle class="cls-1" cx="352" cy="330" r="1"/>
    <circle class="cls-1" cx="374" cy="22" r="1"/>
    <circle class="cls-1" cx="374" cy="44" r="1"/>
    <circle class="cls-1" cx="374" cy="66" r="1"/>
    <circle class="cls-1" cx="374" cy="88" r="1"/>
    <circle class="cls-1" cx="374" cy="110" r="1"/>
    <circle class="cls-1" cx="374" cy="132" r="1"/>
    <circle class="cls-1" cx="374" cy="154" r="1"/>
    <circle class="cls-1" cx="374" cy="176" r="1"/>
    <circle class="cls-1" cx="374" cy="198" r="1"/>
    <circle class="cls-1" cx="374" cy="220" r="1"/>
    <circle class="cls-1" cx="374" cy="242" r="1"/>
    <circle class="cls-1" cx="374" cy="264" r="1"/>
    <circle class="cls-1" cx="374" cy="286" r="1"/>
    <circle class="cls-1" cx="374" cy="308" r="1"/>
    <circle class="cls-1" cx="374" cy="330" r="1"/>
    <circle class="cls-1" cx="396" cy="22" r="1"/>
    <circle class="cls-1" cx="396" cy="44" r="1"/>
    <circle class="cls-1" cx="396" cy="66" r="1"/>
    <circle class="cls-1" cx="396" cy="88" r="1"/>
    <circle class="cls-1" cx="396" cy="110" r="1"/>
    <circle class="cls-1" cx="396" cy="132" r="1"/>
    <circle class="cls-1" cx="396" cy="154" r="1"/>
    <circle class="cls-1" cx="396" cy="176" r="1"/>
    <circle class="cls-1" cx="396" cy="198" r="1"/>
    <circle class="cls-1" cx="396" cy="220" r="1"/>
    <circle class="cls-1" cx="396" cy="242" r="1"/>
    <circle class="cls-1" cx="396" cy="264" r="1"/>
    <circle class="cls-1" cx="396" cy="286" r="1"/>
    <circle class="cls-1" cx="396" cy="308" r="1"/>
    <circle class="cls-1" cx="396" cy="330" r="1"/>
    <circle class="cls-1" cx="418" cy="22" r="1"/>
    <circle class="cls-1" cx="418" cy="44" r="1"/>
    <circle class="cls-1" cx="418" cy="66" r="1"/>
    <circle class="cls-1" cx="418" cy="88" r="1"/>
    <circle class="cls-1" cx="418" cy="110" r="1"/>
    <circle class="cls-1" cx="418" cy="132" r="1"/>
    <circle class="cls-1" cx="418" cy="154" r="1"/>
    <circle class="cls-1" cx="418" cy="176" r="1"/>
    <circle class="cls-1" cx="418" cy="198" r="1"/>
    <circle class="cls-1" cx="418" cy="220" r="1"/>
    <circle class="cls-1" cx="418" cy="242" r="1"/>
    <circle class="cls-1" cx="418" cy="264" r="1"/>
    <circle class="cls-1" cx="418" cy="286" r="1"/>
    <circle class="cls-1" cx="418" cy="308" r="1"/>
    <circle class="cls-1" cx="418" cy="330" r="1"/>
    <circle class="cls-1" cx="440" cy="22" r="1"/>
    <circle class="cls-1" cx="440" cy="44" r="1"/>
    <circle class="cls-1" cx="440" cy="66" r="1"/>
    <circle class="cls-1" cx="440" cy="88" r="1"/>
    <circle class="cls-1" cx="440" cy="110" r="1"/>
    <circle class="cls-1" cx="440" cy="132" r="1"/>
    <circle class="cls-1" cx="440" cy="154" r="1"/>
    <circle class="cls-1" cx="440" cy="176" r="1"/>
    <circle class="cls-1" cx="440" cy="198" r="1"/>
    <circle class="cls-1" cx="440" cy="220" r="1"/>
    <circle class="cls-1" cx="440" cy="242" r="1"/>
    <circle class="cls-1" cx="440" cy="264" r="1"/>
    <circle class="cls-1" cx="440" cy="286" r="1"/>
    <circle class="cls-1" cx="440" cy="308" r="1"/>
    <circle class="cls-1" cx="440" cy="330" r="1"/>
    <circle class="cls-1" cx="462" cy="22" r="1"/>
    <circle class="cls-1" cx="462" cy="44" r="1"/>
    <circle class="cls-1" cx="462" cy="66" r="1"/>
    <circle class="cls-1" cx="462" cy="88" r="1"/>
    <circle class="cls-1" cx="462" cy="110" r="1"/>
    <circle class="cls-1" cx="462" cy="132" r="1"/>
    <circle class="cls-1" cx="462" cy="154" r="1"/>
    <circle class="cls-1" cx="462" cy="176" r="1"/>
    <circle class="cls-1" cx="462" cy="198" r="1"/>
    <circle class="cls-1" cx="462" cy="220" r="1"/>
    <circle class="cls-1" cx="462" cy="242" r="1"/>
    <circle class="cls-1" cx="462" cy="264" r="1"/>
    <circle class="cls-1" cx="462" cy="286" r="1"/>
    <circle class="cls-1" cx="462" cy="308" r="1"/>
    <circle class="cls-1" cx="462" cy="330" r="1"/>
    <circle class="cls-1" cx="22" cy="352" r="1"/>
    <circle class="cls-1" cx="44" cy="352" r="1"/>
    <circle class="cls-1" cx="66" cy="352" r="1"/>
    <circle class="cls-1" cx="88" cy="352" r="1"/>
    <circle class="cls-1" cx="110" cy="352" r="1"/>
    <circle class="cls-1" cx="132" cy="352" r="1"/>
    <circle class="cls-1" cx="154" cy="352" r="1"/>
    <circle class="cls-1" cx="176" cy="352" r="1"/>
    <circle class="cls-1" cx="198" cy="352" r="1"/>
    <circle class="cls-1" cx="220" cy="352" r="1"/>
    <circle class="cls-1" cx="242" cy="352" r="1"/>
    <circle class="cls-1" cx="264" cy="352" r="1"/>
    <circle class="cls-1" cx="286" cy="352" r="1"/>
    <circle class="cls-1" cx="308" cy="352" r="1"/>
    <circle class="cls-1" cx="330" cy="352" r="1"/>
    <circle class="cls-1" cx="352" cy="352" r="1"/>
    <circle class="cls-1" cx="374" cy="352" r="1"/>
    <circle class="cls-1" cx="396" cy="352" r="1"/>
    <circle class="cls-1" cx="418" cy="352" r="1"/>
    <circle class="cls-1" cx="440" cy="352" r="1"/>
    <circle class="cls-1" cx="462" cy="352" r="1"/>
    <circle class="cls-1" cx="22" cy="374" r="1"/>
    <circle class="cls-1" cx="44" cy="374" r="1"/>
    <circle class="cls-1" cx="66" cy="374" r="1"/>
    <circle class="cls-1" cx="88" cy="374" r="1"/>
    <circle class="cls-1" cx="110" cy="374" r="1"/>
    <circle class="cls-1" cx="132" cy="374" r="1"/>
    <circle class="cls-1" cx="154" cy="374" r="1"/>
    <circle class="cls-1" cx="176" cy="374" r="1"/>
    <circle class="cls-1" cx="198" cy="374" r="1"/>
    <circle class="cls-1" cx="220" cy="374" r="1"/>
    <circle class="cls-1" cx="242" cy="374" r="1"/>
    <circle class="cls-1" cx="264" cy="374" r="1"/>
    <circle class="cls-1" cx="286" cy="374" r="1"/>
    <circle class="cls-1" cx="308" cy="374" r="1"/>
    <circle class="cls-1" cx="330" cy="374" r="1"/>
    <circle class="cls-1" cx="352" cy="374" r="1"/>
    <circle class="cls-1" cx="374" cy="374" r="1"/>
    <circle class="cls-1" cx="396" cy="374" r="1"/>
    <circle class="cls-1" cx="418" cy="374" r="1"/>
    <circle class="cls-1" cx="440" cy="374" r="1"/>
    <circle class="cls-1" cx="462" cy="374" r="1"/>
    <circle class="cls-1" cx="286" cy="22" r="1"/>
  </g>
</svg>