<?xml version="1.0" encoding="UTF-8"?>
<svg id="grid" xmlns="http://www.w3.org/2000/svg" viewBox="0 0 286 330">
  <defs>
    <style>
      .cls-1 {
        fill: #000;
        stroke-width: 0px;
      }
    </style>
  </defs>
  <g id="login">
    <circle class="cls-1" cx="22" cy="44" r="1"/>
    <circle class="cls-1" cx="44" cy="44" r="1"/>
    <circle class="cls-1" cx="66" cy="44" r="1"/>
    <circle class="cls-1" cx="22" cy="66" r="1"/>
    <circle class="cls-1" cx="44" cy="66" r="1"/>
    <circle class="cls-1" cx="66" cy="66" r="1"/>
    <circle class="cls-1" cx="22" cy="88" r="1"/>
    <circle class="cls-1" cx="44" cy="88" r="1"/>
    <circle class="cls-1" cx="66" cy="88" r="1"/>
    <circle class="cls-1" cx="22" cy="110" r="1"/>
    <circle class="cls-1" cx="44" cy="110" r="1"/>
    <circle class="cls-1" cx="66" cy="110" r="1"/>
    <circle class="cls-1" cx="22" cy="132" r="1"/>
    <circle class="cls-1" cx="44" cy="132" r="1"/>
    <circle class="cls-1" cx="66" cy="132" r="1"/>
    <circle class="cls-1" cx="22" cy="154" r="1"/>
    <circle class="cls-1" cx="44" cy="154" r="1"/>
    <circle class="cls-1" cx="66" cy="154" r="1"/>
    <circle class="cls-1" cx="22" cy="176" r="1"/>
    <circle class="cls-1" cx="44" cy="176" r="1"/>
    <circle class="cls-1" cx="66" cy="176" r="1"/>
    <circle class="cls-1" cx="22" cy="198" r="1"/>
    <circle class="cls-1" cx="44" cy="198" r="1"/>
    <circle class="cls-1" cx="66" cy="198" r="1"/>
    <circle class="cls-1" cx="22" cy="220" r="1"/>
    <circle class="cls-1" cx="44" cy="220" r="1"/>
    <circle class="cls-1" cx="66" cy="220" r="1"/>
    <circle class="cls-1" cx="22" cy="242" r="1"/>
    <circle class="cls-1" cx="44" cy="242" r="1"/>
    <circle class="cls-1" cx="66" cy="242" r="1"/>
    <circle class="cls-1" cx="22" cy="264" r="1"/>
    <circle class="cls-1" cx="44" cy="264" r="1"/>
    <circle class="cls-1" cx="66" cy="264" r="1"/>
    <circle class="cls-1" cx="22" cy="286" r="1"/>
    <circle class="cls-1" cx="44" cy="286" r="1"/>
    <circle class="cls-1" cx="66" cy="286" r="1"/>
    <circle class="cls-1" cx="88" cy="44" r="1"/>
    <circle class="cls-1" cx="110" cy="44" r="1"/>
    <circle class="cls-1" cx="132" cy="44" r="1"/>
    <circle class="cls-1" cx="88" cy="66" r="1"/>
    <circle class="cls-1" cx="110" cy="66" r="1"/>
    <circle class="cls-1" cx="132" cy="66" r="1"/>
    <circle class="cls-1" cx="88" cy="88" r="1"/>
    <circle class="cls-1" cx="110" cy="88" r="1"/>
    <circle class="cls-1" cx="132" cy="88" r="1"/>
    <circle class="cls-1" cx="88" cy="110" r="1"/>
    <circle class="cls-1" cx="110" cy="110" r="1"/>
    <circle class="cls-1" cx="132" cy="110" r="1"/>
    <circle class="cls-1" cx="88" cy="132" r="1"/>
    <circle class="cls-1" cx="110" cy="132" r="1"/>
    <circle class="cls-1" cx="132" cy="132" r="1"/>
    <circle class="cls-1" cx="88" cy="154" r="1"/>
    <circle class="cls-1" cx="110" cy="154" r="1"/>
    <circle class="cls-1" cx="132" cy="154" r="1"/>
    <circle class="cls-1" cx="88" cy="176" r="1"/>
    <circle class="cls-1" cx="110" cy="176" r="1"/>
    <circle class="cls-1" cx="132" cy="176" r="1"/>
    <circle class="cls-1" cx="88" cy="198" r="1"/>
    <circle class="cls-1" cx="110" cy="198" r="1"/>
    <circle class="cls-1" cx="132" cy="198" r="1"/>
    <circle class="cls-1" cx="88" cy="220" r="1"/>
    <circle class="cls-1" cx="110" cy="220" r="1"/>
    <circle class="cls-1" cx="132" cy="220" r="1"/>
    <circle class="cls-1" cx="88" cy="242" r="1"/>
    <circle class="cls-1" cx="110" cy="242" r="1"/>
    <circle class="cls-1" cx="132" cy="242" r="1"/>
    <circle class="cls-1" cx="88" cy="264" r="1"/>
    <circle class="cls-1" cx="110" cy="264" r="1"/>
    <circle class="cls-1" cx="132" cy="264" r="1"/>
    <circle class="cls-1" cx="88" cy="286" r="1"/>
    <circle class="cls-1" cx="110" cy="286" r="1"/>
    <circle class="cls-1" cx="132" cy="286" r="1"/>
    <circle class="cls-1" cx="154" cy="44" r="1"/>
    <circle class="cls-1" cx="176" cy="44" r="1"/>
    <circle class="cls-1" cx="198" cy="44" r="1"/>
    <circle class="cls-1" cx="154" cy="66" r="1"/>
    <circle class="cls-1" cx="176" cy="66" r="1"/>
    <circle class="cls-1" cx="198" cy="66" r="1"/>
    <circle class="cls-1" cx="154" cy="88" r="1"/>
    <circle class="cls-1" cx="176" cy="88" r="1"/>
    <circle class="cls-1" cx="198" cy="88" r="1"/>
    <circle class="cls-1" cx="154" cy="110" r="1"/>
    <circle class="cls-1" cx="176" cy="110" r="1"/>
    <circle class="cls-1" cx="198" cy="110" r="1"/>
    <circle class="cls-1" cx="154" cy="132" r="1"/>
    <circle class="cls-1" cx="176" cy="132" r="1"/>
    <circle class="cls-1" cx="198" cy="132" r="1"/>
    <circle class="cls-1" cx="154" cy="154" r="1"/>
    <circle class="cls-1" cx="176" cy="154" r="1"/>
    <circle class="cls-1" cx="198" cy="154" r="1"/>
    <circle class="cls-1" cx="154" cy="176" r="1"/>
    <circle class="cls-1" cx="176" cy="176" r="1"/>
    <circle class="cls-1" cx="198" cy="176" r="1"/>
    <circle class="cls-1" cx="154" cy="198" r="1"/>
    <circle class="cls-1" cx="176" cy="198" r="1"/>
    <circle class="cls-1" cx="198" cy="198" r="1"/>
    <circle class="cls-1" cx="154" cy="220" r="1"/>
    <circle class="cls-1" cx="176" cy="220" r="1"/>
    <circle class="cls-1" cx="198" cy="220" r="1"/>
    <circle class="cls-1" cx="154" cy="242" r="1"/>
    <circle class="cls-1" cx="176" cy="242" r="1"/>
    <circle class="cls-1" cx="198" cy="242" r="1"/>
    <circle class="cls-1" cx="154" cy="264" r="1"/>
    <circle class="cls-1" cx="176" cy="264" r="1"/>
    <circle class="cls-1" cx="198" cy="264" r="1"/>
    <circle class="cls-1" cx="154" cy="286" r="1"/>
    <circle class="cls-1" cx="176" cy="286" r="1"/>
    <circle class="cls-1" cx="198" cy="286" r="1"/>
    <circle class="cls-1" cx="220" cy="44" r="1"/>
    <circle class="cls-1" cx="242" cy="44" r="1"/>
    <circle class="cls-1" cx="264" cy="44" r="1"/>
    <circle class="cls-1" cx="220" cy="66" r="1"/>
    <circle class="cls-1" cx="242" cy="66" r="1"/>
    <circle class="cls-1" cx="264" cy="66" r="1"/>
    <circle class="cls-1" cx="220" cy="88" r="1"/>
    <circle class="cls-1" cx="242" cy="88" r="1"/>
    <circle class="cls-1" cx="264" cy="88" r="1"/>
    <circle class="cls-1" cx="220" cy="110" r="1"/>
    <circle class="cls-1" cx="242" cy="110" r="1"/>
    <circle class="cls-1" cx="264" cy="110" r="1"/>
    <circle class="cls-1" cx="220" cy="132" r="1"/>
    <circle class="cls-1" cx="242" cy="132" r="1"/>
    <circle class="cls-1" cx="264" cy="132" r="1"/>
    <circle class="cls-1" cx="220" cy="154" r="1"/>
    <circle class="cls-1" cx="242" cy="154" r="1"/>
    <circle class="cls-1" cx="264" cy="154" r="1"/>
    <circle class="cls-1" cx="220" cy="176" r="1"/>
    <circle class="cls-1" cx="242" cy="176" r="1"/>
    <circle class="cls-1" cx="264" cy="176" r="1"/>
    <circle class="cls-1" cx="220" cy="198" r="1"/>
    <circle class="cls-1" cx="242" cy="198" r="1"/>
    <circle class="cls-1" cx="264" cy="198" r="1"/>
    <circle class="cls-1" cx="220" cy="220" r="1"/>
    <circle class="cls-1" cx="242" cy="220" r="1"/>
    <circle class="cls-1" cx="264" cy="220" r="1"/>
    <circle class="cls-1" cx="220" cy="242" r="1"/>
    <circle class="cls-1" cx="242" cy="242" r="1"/>
    <circle class="cls-1" cx="264" cy="242" r="1"/>
    <circle class="cls-1" cx="220" cy="264" r="1"/>
    <circle class="cls-1" cx="242" cy="264" r="1"/>
    <circle class="cls-1" cx="264" cy="264" r="1"/>
    <circle class="cls-1" cx="220" cy="286" r="1"/>
    <circle class="cls-1" cx="242" cy="286" r="1"/>
    <circle class="cls-1" cx="264" cy="286" r="1"/>
    <circle class="cls-1" cx="22" cy="286" r="1"/>
    <circle class="cls-1" cx="44" cy="286" r="1"/>
    <circle class="cls-1" cx="66" cy="286" r="1"/>
    <circle class="cls-1" cx="22" cy="308" r="1"/>
    <circle class="cls-1" cx="44" cy="308" r="1"/>
    <circle class="cls-1" cx="66" cy="308" r="1"/>
    <circle class="cls-1" cx="88" cy="286" r="1"/>
    <circle class="cls-1" cx="110" cy="286" r="1"/>
    <circle class="cls-1" cx="132" cy="286" r="1"/>
    <circle class="cls-1" cx="88" cy="308" r="1"/>
    <circle class="cls-1" cx="110" cy="308" r="1"/>
    <circle class="cls-1" cx="132" cy="308" r="1"/>
    <circle class="cls-1" cx="154" cy="286" r="1"/>
    <circle class="cls-1" cx="176" cy="286" r="1"/>
    <circle class="cls-1" cx="198" cy="286" r="1"/>
    <circle class="cls-1" cx="154" cy="308" r="1"/>
    <circle class="cls-1" cx="176" cy="308" r="1"/>
    <circle class="cls-1" cx="198" cy="308" r="1"/>
    <circle class="cls-1" cx="220" cy="286" r="1"/>
    <circle class="cls-1" cx="242" cy="286" r="1"/>
    <circle class="cls-1" cx="264" cy="286" r="1"/>
    <circle class="cls-1" cx="220" cy="308" r="1"/>
    <circle class="cls-1" cx="242" cy="308" r="1"/>
    <circle class="cls-1" cx="264" cy="308" r="1"/>
    <circle class="cls-1" cx="22" cy="22" r="1"/>
    <circle class="cls-1" cx="44" cy="22" r="1"/>
    <circle class="cls-1" cx="66" cy="22" r="1"/>
    <circle class="cls-1" cx="22" cy="44" r="1"/>
    <circle class="cls-1" cx="44" cy="44" r="1"/>
    <circle class="cls-1" cx="66" cy="44" r="1"/>
    <circle class="cls-1" cx="88" cy="22" r="1"/>
    <circle class="cls-1" cx="110" cy="22" r="1"/>
    <circle class="cls-1" cx="132" cy="22" r="1"/>
    <circle class="cls-1" cx="88" cy="44" r="1"/>
    <circle class="cls-1" cx="110" cy="44" r="1"/>
    <circle class="cls-1" cx="132" cy="44" r="1"/>
    <circle class="cls-1" cx="154" cy="22" r="1"/>
    <circle class="cls-1" cx="176" cy="22" r="1"/>
    <circle class="cls-1" cx="198" cy="22" r="1"/>
    <circle class="cls-1" cx="154" cy="44" r="1"/>
    <circle class="cls-1" cx="176" cy="44" r="1"/>
    <circle class="cls-1" cx="198" cy="44" r="1"/>
    <circle class="cls-1" cx="220" cy="22" r="1"/>
    <circle class="cls-1" cx="242" cy="22" r="1"/>
    <circle class="cls-1" cx="264" cy="22" r="1"/>
    <circle class="cls-1" cx="220" cy="44" r="1"/>
    <circle class="cls-1" cx="242" cy="44" r="1"/>
    <circle class="cls-1" cx="264" cy="44" r="1"/>
    <circle class="cls-1" cx="22" cy="44" r="1"/>
    <circle class="cls-1" cx="22" cy="66" r="1"/>
    <circle class="cls-1" cx="22" cy="88" r="1"/>
    <circle class="cls-1" cx="22" cy="110" r="1"/>
    <circle class="cls-1" cx="22" cy="132" r="1"/>
    <circle class="cls-1" cx="22" cy="154" r="1"/>
    <circle class="cls-1" cx="22" cy="176" r="1"/>
    <circle class="cls-1" cx="22" cy="198" r="1"/>
    <circle class="cls-1" cx="22" cy="220" r="1"/>
    <circle class="cls-1" cx="22" cy="242" r="1"/>
    <circle class="cls-1" cx="22" cy="264" r="1"/>
    <circle class="cls-1" cx="22" cy="286" r="1"/>
    <circle class="cls-1" cx="264" cy="44" r="1"/>
    <circle class="cls-1" cx="264" cy="66" r="1"/>
    <circle class="cls-1" cx="264" cy="88" r="1"/>
    <circle class="cls-1" cx="264" cy="110" r="1"/>
    <circle class="cls-1" cx="264" cy="132" r="1"/>
    <circle class="cls-1" cx="264" cy="154" r="1"/>
    <circle class="cls-1" cx="264" cy="176" r="1"/>
    <circle class="cls-1" cx="264" cy="198" r="1"/>
    <circle class="cls-1" cx="264" cy="220" r="1"/>
    <circle class="cls-1" cx="264" cy="242" r="1"/>
    <circle class="cls-1" cx="264" cy="264" r="1"/>
    <circle class="cls-1" cx="264" cy="286" r="1"/>
  </g>
</svg>