<?xml version="1.0" encoding="UTF-8"?>
<svg id="_レイヤー_1" data-name="レイヤー 1" xmlns="http://www.w3.org/2000/svg" viewBox="0 0 287 320">
  <defs>
    <style>
      .cls-1 {
        fill: #000;
        isolation: isolate;
        opacity: .2;
        stroke-width: 0px;
      }
    </style>
  </defs>
  <circle class="cls-1" cx="23" cy="57" r="1"/>
  <circle class="cls-1" cx="45" cy="57" r="1"/>
  <circle class="cls-1" cx="67" cy="57" r="1"/>
  <circle class="cls-1" cx="89" cy="57" r="1"/>
  <circle class="cls-1" cx="111" cy="57" r="1"/>
  <circle class="cls-1" cx="133" cy="57" r="1"/>
  <circle class="cls-1" cx="155" cy="57" r="1"/>
  <circle class="cls-1" cx="177" cy="57" r="1"/>
  <circle class="cls-1" cx="199" cy="57" r="1"/>
  <circle class="cls-1" cx="221" cy="57" r="1"/>
  <circle class="cls-1" cx="243" cy="57" r="1"/>
  <circle class="cls-1" cx="265" cy="57" r="1"/>
  <circle class="cls-1" cx="23" cy="35" r="1"/>
  <circle class="cls-1" cx="45" cy="35" r="1"/>
  <circle class="cls-1" cx="67" cy="35" r="1"/>
  <circle class="cls-1" cx="89" cy="35" r="1"/>
  <circle class="cls-1" cx="111" cy="35" r="1"/>
  <circle class="cls-1" cx="133" cy="35" r="1"/>
  <circle class="cls-1" cx="155" cy="35" r="1"/>
  <circle class="cls-1" cx="177" cy="35" r="1"/>
  <circle class="cls-1" cx="199" cy="35" r="1"/>
  <circle class="cls-1" cx="221" cy="35" r="1"/>
  <circle class="cls-1" cx="243" cy="35" r="1"/>
  <circle class="cls-1" cx="265" cy="35" r="1"/>
  <circle class="cls-1" cx="23" cy="79" r="1"/>
  <circle class="cls-1" cx="45" cy="79" r="1"/>
  <circle class="cls-1" cx="67" cy="79" r="1"/>
  <circle class="cls-1" cx="89" cy="79" r="1"/>
  <circle class="cls-1" cx="111" cy="79" r="1"/>
  <circle class="cls-1" cx="133" cy="79" r="1"/>
  <circle class="cls-1" cx="155" cy="79" r="1"/>
  <circle class="cls-1" cx="177" cy="79" r="1"/>
  <circle class="cls-1" cx="199" cy="79" r="1"/>
  <circle class="cls-1" cx="221" cy="79" r="1"/>
  <circle class="cls-1" cx="243" cy="79" r="1"/>
  <circle class="cls-1" cx="265" cy="79" r="1"/>
  <circle class="cls-1" cx="23" cy="101" r="1"/>
  <circle class="cls-1" cx="45" cy="101" r="1"/>
  <circle class="cls-1" cx="67" cy="101" r="1"/>
  <circle class="cls-1" cx="89" cy="101" r="1"/>
  <circle class="cls-1" cx="111" cy="101" r="1"/>
  <circle class="cls-1" cx="133" cy="101" r="1"/>
  <circle class="cls-1" cx="155" cy="101" r="1"/>
  <circle class="cls-1" cx="177" cy="101" r="1"/>
  <circle class="cls-1" cx="199" cy="101" r="1"/>
  <circle class="cls-1" cx="221" cy="101" r="1"/>
  <circle class="cls-1" cx="243" cy="101" r="1"/>
  <circle class="cls-1" cx="265" cy="101" r="1"/>
  <circle class="cls-1" cx="23" cy="123" r="1"/>
  <circle class="cls-1" cx="45" cy="123" r="1"/>
  <circle class="cls-1" cx="67" cy="123" r="1"/>
  <circle class="cls-1" cx="89" cy="123" r="1"/>
  <circle class="cls-1" cx="111" cy="123" r="1"/>
  <circle class="cls-1" cx="133" cy="123" r="1"/>
  <circle class="cls-1" cx="155" cy="123" r="1"/>
  <circle class="cls-1" cx="177" cy="123" r="1"/>
  <circle class="cls-1" cx="199" cy="123" r="1"/>
  <circle class="cls-1" cx="221" cy="123" r="1"/>
  <circle class="cls-1" cx="243" cy="123" r="1"/>
  <circle class="cls-1" cx="265" cy="123" r="1"/>
  <circle class="cls-1" cx="23" cy="145" r="1"/>
  <circle class="cls-1" cx="45" cy="145" r="1"/>
  <circle class="cls-1" cx="67" cy="145" r="1"/>
  <circle class="cls-1" cx="89" cy="145" r="1"/>
  <circle class="cls-1" cx="111" cy="145" r="1"/>
  <circle class="cls-1" cx="133" cy="145" r="1"/>
  <circle class="cls-1" cx="155" cy="145" r="1"/>
  <circle class="cls-1" cx="177" cy="145" r="1"/>
  <circle class="cls-1" cx="199" cy="145" r="1"/>
  <circle class="cls-1" cx="221" cy="145" r="1"/>
  <circle class="cls-1" cx="243" cy="145" r="1"/>
  <circle class="cls-1" cx="265" cy="145" r="1"/>
  <circle class="cls-1" cx="23" cy="167" r="1"/>
  <circle class="cls-1" cx="45" cy="167" r="1"/>
  <circle class="cls-1" cx="67" cy="167" r="1"/>
  <circle class="cls-1" cx="89" cy="167" r="1"/>
  <circle class="cls-1" cx="111" cy="167" r="1"/>
  <circle class="cls-1" cx="133" cy="167" r="1"/>
  <circle class="cls-1" cx="155" cy="167" r="1"/>
  <circle class="cls-1" cx="177" cy="167" r="1"/>
  <circle class="cls-1" cx="199" cy="167" r="1"/>
  <circle class="cls-1" cx="221" cy="167" r="1"/>
  <circle class="cls-1" cx="243" cy="167" r="1"/>
  <circle class="cls-1" cx="265" cy="167" r="1"/>
  <circle class="cls-1" cx="23" cy="189" r="1"/>
  <circle class="cls-1" cx="45" cy="189" r="1"/>
  <circle class="cls-1" cx="67" cy="189" r="1"/>
  <circle class="cls-1" cx="89" cy="189" r="1"/>
  <circle class="cls-1" cx="111" cy="189" r="1"/>
  <circle class="cls-1" cx="133" cy="189" r="1"/>
  <circle class="cls-1" cx="155" cy="189" r="1"/>
  <circle class="cls-1" cx="177" cy="189" r="1"/>
  <circle class="cls-1" cx="199" cy="189" r="1"/>
  <circle class="cls-1" cx="221" cy="189" r="1"/>
  <circle class="cls-1" cx="243" cy="189" r="1"/>
  <circle class="cls-1" cx="265" cy="189" r="1"/>
  <circle class="cls-1" cx="23" cy="211" r="1"/>
  <circle class="cls-1" cx="45" cy="211" r="1"/>
  <circle class="cls-1" cx="67" cy="211" r="1"/>
  <circle class="cls-1" cx="89" cy="211" r="1"/>
  <circle class="cls-1" cx="111" cy="211" r="1"/>
  <circle class="cls-1" cx="133" cy="211" r="1"/>
  <circle class="cls-1" cx="155" cy="211" r="1"/>
  <circle class="cls-1" cx="177" cy="211" r="1"/>
  <circle class="cls-1" cx="199" cy="211" r="1"/>
  <circle class="cls-1" cx="221" cy="211" r="1"/>
  <circle class="cls-1" cx="243" cy="211" r="1"/>
  <circle class="cls-1" cx="265" cy="211" r="1"/>
  <circle class="cls-1" cx="23" cy="233" r="1"/>
  <circle class="cls-1" cx="45" cy="233" r="1"/>
  <circle class="cls-1" cx="67" cy="233" r="1"/>
  <circle class="cls-1" cx="89" cy="233" r="1"/>
  <circle class="cls-1" cx="111" cy="233" r="1"/>
  <circle class="cls-1" cx="133" cy="233" r="1"/>
  <circle class="cls-1" cx="155" cy="233" r="1"/>
  <circle class="cls-1" cx="177" cy="233" r="1"/>
  <circle class="cls-1" cx="199" cy="233" r="1"/>
  <circle class="cls-1" cx="221" cy="233" r="1"/>
  <circle class="cls-1" cx="243" cy="233" r="1"/>
  <circle class="cls-1" cx="265" cy="233" r="1"/>
  <circle class="cls-1" cx="23" cy="255" r="1"/>
  <circle class="cls-1" cx="45" cy="255" r="1"/>
  <circle class="cls-1" cx="67" cy="255" r="1"/>
  <circle class="cls-1" cx="89" cy="255" r="1"/>
  <circle class="cls-1" cx="111" cy="255" r="1"/>
  <circle class="cls-1" cx="133" cy="255" r="1"/>
  <circle class="cls-1" cx="155" cy="255" r="1"/>
  <circle class="cls-1" cx="177" cy="255" r="1"/>
  <circle class="cls-1" cx="199" cy="255" r="1"/>
  <circle class="cls-1" cx="221" cy="255" r="1"/>
  <circle class="cls-1" cx="243" cy="255" r="1"/>
  <circle class="cls-1" cx="265" cy="255" r="1"/>
  <circle class="cls-1" cx="23" cy="277" r="1"/>
  <circle class="cls-1" cx="45" cy="277" r="1"/>
  <circle class="cls-1" cx="67" cy="277" r="1"/>
  <circle class="cls-1" cx="89" cy="277" r="1"/>
  <circle class="cls-1" cx="111" cy="277" r="1"/>
  <circle class="cls-1" cx="133" cy="277" r="1"/>
  <circle class="cls-1" cx="155" cy="277" r="1"/>
  <circle class="cls-1" cx="177" cy="277" r="1"/>
  <circle class="cls-1" cx="199" cy="277" r="1"/>
  <circle class="cls-1" cx="221" cy="277" r="1"/>
  <circle class="cls-1" cx="243" cy="277" r="1"/>
  <circle class="cls-1" cx="265" cy="277" r="1"/>
  <circle class="cls-1" cx="23" cy="299" r="1"/>
  <circle class="cls-1" cx="45" cy="299" r="1"/>
  <circle class="cls-1" cx="67" cy="299" r="1"/>
  <circle class="cls-1" cx="89" cy="299" r="1"/>
  <circle class="cls-1" cx="111" cy="299" r="1"/>
  <circle class="cls-1" cx="133" cy="299" r="1"/>
  <circle class="cls-1" cx="155" cy="299" r="1"/>
  <circle class="cls-1" cx="177" cy="299" r="1"/>
  <circle class="cls-1" cx="199" cy="299" r="1"/>
  <circle class="cls-1" cx="221" cy="299" r="1"/>
  <circle class="cls-1" cx="243" cy="299" r="1"/>
  <circle class="cls-1" cx="265" cy="299" r="1"/>
</svg>