<?xml version="1.0" encoding="UTF-8"?>
<svg id="_レイヤー_1" data-name="レイヤー 1" xmlns="http://www.w3.org/2000/svg" viewBox="0 0 384 167">
  <defs>
    <style>
      .cls-1, .cls-2, .cls-3, .cls-4, .cls-5 {
        stroke-width: 0px;
      }

      .cls-1, .cls-2, .cls-3, .cls-5 {
        fill: #1bcf6e;
      }

      .cls-2 {
        opacity: .5;
      }

      .cls-3 {
        opacity: .25;
      }

      .cls-4 {
        fill: #1d2833;
      }

      .cls-5 {
        opacity: .75;
      }
    </style>
  </defs>
  <g>
    <g>
      <path class="cls-4" d="M126.44,9.38v5.06h-3.99v9.44c0,.67.13,1.18.39,1.51s.75.5,1.46.5c.59,0,1.3-.15,2.14-.45v4.79c-1.85.73-3.59,1.09-5.22,1.09-1.88,0-3.29-.48-4.23-1.43s-1.41-2.3-1.41-4.04v-11.41h-2.74v-5.06h2.74v-3.35l6.87-4.94v8.29h3.99Z"/>
      <path class="cls-4" d="M145.19,8.88c2.19,0,3.84.66,4.95,1.99s1.66,3.26,1.66,5.8v9.34h3.21v4.98h-10.12v-13.98c0-.89-.17-1.53-.5-1.91s-.89-.58-1.68-.58c-1.07,0-2.28.44-3.62,1.32v10.18h3.02v4.98h-13.39v-4.98h3.5V4.96h-3.5V0h10.37v11.15c2.22-1.51,4.26-2.26,6.11-2.26Z"/>
      <path class="cls-4" d="M180.44,21.64h-16.12c.16,1.66.74,2.97,1.72,3.94s2.25,1.45,3.79,1.45c1.71,0,3.39-.85,5.02-2.55l5.35,1.73c-1.18,1.77-2.64,3.1-4.38,3.98s-3.8,1.33-6.19,1.33-4.49-.45-6.32-1.35c-1.83-.9-3.25-2.17-4.26-3.81s-1.51-3.58-1.51-5.8.52-4.18,1.57-5.96c1.05-1.78,2.47-3.18,4.26-4.19,1.79-1.01,3.73-1.51,5.83-1.51,2.28,0,4.26.52,5.94,1.57s2.99,2.54,3.9,4.46c.91,1.93,1.38,4.16,1.41,6.71ZM168.86,13.47c-1.23,0-2.22.36-2.97,1.07s-1.22,1.8-1.41,3.27h9.01c-.19-1.29-.72-2.33-1.57-3.14s-1.87-1.2-3.05-1.2Z"/>
    </g>
    <g>
      <path class="cls-4" d="M37.7,28.65v21.66h27.3v-21.66h-10.2V11.69h47.9v16.96h-12.46v65.92h12.46v16.96h-47.9v-16.96h10.2v-27.16h-27.3v82.31h10.47v16.96H0v-16.96h12.46V28.65H0V11.69h48.17v16.96h-10.47Z"/>
      <path class="cls-4" d="M178.02,69.73v25.77h11.26v16.03h-33.39v-5.43c-6.32,4.33-12.63,6.49-18.95,6.49-7.64,0-13.76-1.97-18.35-5.9-4.59-3.93-6.89-9.23-6.89-15.9,0-7.07,2.57-12.73,7.72-16.99,5.15-4.26,11.98-6.39,20.51-6.39,2.96,0,5.6.32,7.92.96s5,1.73,8.05,3.28v-5.57c0-3.53-1.1-6.36-3.31-8.48s-5.52-3.18-9.94-3.18c-4.81,0-9.08,1.86-12.79,5.57l-17.89-3.25c5.43-10.95,16.65-16.43,33.66-16.43,11.66,0,19.98,2.4,24.94,7.19s7.45,12.2,7.45,22.23ZM141.91,98.75c3.98,0,8.63-2.39,13.98-7.16v-6.23c-4.77-3.09-9.14-4.64-13.12-4.64-3.18,0-5.61.75-7.29,2.25-1.68,1.5-2.52,3.64-2.52,6.43,0,6.23,2.98,9.34,8.94,9.34Z"/>
      <path class="cls-4" d="M248.98,40.32c5.96,0,11.25,1.65,15.87,4.94,4.62,3.29,8.17,7.7,10.67,13.22,2.5,5.52,3.74,11.51,3.74,17.95s-1.23,12.52-3.68,18.09c-2.45,5.57-5.92,9.97-10.4,13.22-4.48,3.25-9.66,4.87-15.54,4.87-7.33,0-14.11-3.03-20.34-9.08v8.02h-34.19v-16.03h12.06V27.66h-12.06v-15.97h34.19v38.23c5.61-6.4,12.17-9.61,19.68-9.61ZM242.88,95.37c4.24,0,7.56-1.76,9.97-5.27,2.41-3.51,3.61-8.18,3.61-14.01s-1.2-10.19-3.61-13.22-5.69-4.54-9.84-4.54-7.72,1.72-10.17,5.17-3.68,8.02-3.68,13.71c0,5.34,1.25,9.71,3.74,13.08s5.82,5.07,9.97,5.07Z"/>
      <path class="cls-4" d="M332.46,95.5v16.03h-43v-16.03h10.6v-37.3h-10.6v-16.3h32.66v53.6h10.34ZM323.51,22.1c0,3.53-1.2,6.46-3.61,8.78-2.41,2.32-5.27,3.48-8.58,3.48s-6.24-1.2-8.65-3.61-3.61-5.29-3.61-8.65,1.2-6.17,3.61-8.58,5.29-3.61,8.65-3.61,6.17,1.2,8.58,3.61,3.61,5.27,3.61,8.58Z"/>
      <path class="cls-4" d="M384,41.91v16.3h-12.85v54.22c0,2.16.42,3.79,1.26,4.87s2.41,1.62,4.7,1.62c1.9,0,4.2-.49,6.89-1.46v15.44c-5.96,2.34-11.57,3.51-16.83,3.51-6.05,0-10.59-1.53-13.61-4.6-3.03-3.07-4.54-7.41-4.54-13.02v-60.58h-8.81v-16.3h8.81v-10.8l22.13-15.9v26.7h12.85Z"/>
    </g>
  </g>
  <g>
    <rect class="cls-1" x="54.79" y="118.78" width="47.9" height="47.9" rx="4" ry="4"/>
    <rect class="cls-3" x="284.55" y="118.78" width="47.9" height="47.9" rx="4" ry="4"/>
    <rect class="cls-2" x="227.11" y="118.78" width="47.9" height="47.9" rx="4" ry="4"/>
    <rect class="cls-5" x="169.67" y="118.78" width="47.9" height="47.9" rx="4" ry="4"/>
    <rect class="cls-1" x="112.23" y="118.78" width="47.9" height="47.9" rx="4" ry="4"/>
  </g>
</svg>