<?xml version="1.0" encoding="utf-8"?>
<!-- Generator: Adobe Illustrator 28.4.1, SVG Export Plug-In . SVG Version: 6.00 Build 0)  -->
<svg version="1.1" id="レイヤー_1" xmlns="http://www.w3.org/2000/svg" xmlns:xlink="http://www.w3.org/1999/xlink" x="0px"
	 y="0px" viewBox="0 0 198 110" enable-background="new 0 0 198 110" xml:space="preserve">
<g>
	<g>
		<defs>
			<rect id="SVGID_1_" x="9" y="15.5" width="180" height="79"/>
		</defs>
		<clipPath id="SVGID_00000016795461101796530090000015769807027632158372_">
			<use xlink:href="#SVGID_1_"  overflow="visible"/>
		</clipPath>
		<g clip-path="url(#SVGID_00000016795461101796530090000015769807027632158372_)">
			<path fill="#1D2833" d="M68.3,19.9v2.4h-1.9v4.5c0,0.3,0.1,0.6,0.2,0.7c0.1,0.2,0.4,0.2,0.7,0.2c0.3,0,0.6-0.1,1-0.2v2.3
				c-0.9,0.3-1.7,0.5-2.4,0.5c-0.9,0-1.5-0.2-2-0.7c-0.4-0.4-0.7-1.1-0.7-1.9v-5.4h-1.3v-2.4h1.3v-1.6l3.2-2.3v3.9H68.3z"/>
			<path fill="#1D2833" d="M77.1,19.7c1,0,1.8,0.3,2.3,0.9c0.5,0.6,0.8,1.5,0.8,2.7v4.4h1.5v2.4H77v-6.6c0-0.4-0.1-0.7-0.2-0.9
				c-0.2-0.2-0.4-0.3-0.8-0.3c-0.5,0-1.1,0.2-1.7,0.6v4.8h1.4v2.4h-6.3v-2.4H71v-10h-1.6v-2.2h4.9v5.3
				C75.2,20.1,76.2,19.7,77.1,19.7L77.1,19.7z"/>
			<path fill="#1D2833" d="M93.6,25.7H86c0.1,0.8,0.3,1.4,0.8,1.9s1.1,0.7,1.8,0.7c0.8,0,1.6-0.4,2.4-1.2l2.5,0.8
				c-0.6,0.8-1.2,1.5-2.1,1.9c-0.8,0.4-1.8,0.6-2.9,0.6c-1.1,0-2.1-0.2-3-0.6c-0.9-0.4-1.5-1-2-1.8s-0.7-1.7-0.7-2.7s0.2-2,0.7-2.8
				s1.2-1.5,2-2s1.7-0.7,2.7-0.7c1.1,0,2,0.2,2.8,0.7s1.4,1.2,1.8,2.1C93.4,23.5,93.6,24.5,93.6,25.7L93.6,25.7z M88.2,21.9
				c-0.6,0-1,0.2-1.4,0.5s-0.6,0.9-0.7,1.5h4.2c-0.1-0.6-0.3-1.1-0.7-1.5C89.2,22.1,88.7,21.9,88.2,21.9L88.2,21.9z"/>
			<path fill="#1D2833" d="M26.7,29.1v10.2h12.8V29.1h-4.8v-8h22.5v8h-5.8v31.2h5.8v8H34.7v-8h4.8V47.4H26.7v38.9h4.9v8H9v-8h5.8
				V29.1H9v-8h22.6v8H26.7z"/>
			<path fill="#1D2833" d="M92.4,48.5v12.2h5.3v7.6H82v-2.6c-3,2-5.9,3.1-8.9,3.1c-3.6,0-6.4-0.9-8.6-2.8s-3.2-4.4-3.2-7.5
				c0-3.3,1.2-6,3.6-8s5.6-3,9.6-3c1.4,0,2.6,0.2,3.7,0.5s2.3,0.8,3.8,1.6V47c0-1.7-0.5-3-1.6-4c-1-1-2.6-1.5-4.7-1.5
				c-2.3,0-4.3,0.9-6,2.6l-8.4-1.5c2.5-5.2,7.8-7.8,15.8-7.8c5.5,0,9.4,1.1,11.7,3.4S92.4,43.7,92.4,48.5z M75.5,62.2
				c1.9,0,4-1.1,6.6-3.4v-2.9c-2.2-1.5-4.3-2.2-6.1-2.2c-1.5,0-2.6,0.4-3.4,1.1s-1.2,1.7-1.2,3C71.3,60.7,72.7,62.2,75.5,62.2
				L75.5,62.2z"/>
			<path fill="#1D2833" d="M125.7,34.6c2.8,0,5.3,0.8,7.4,2.3c2.2,1.6,3.8,3.6,5,6.3s1.8,5.4,1.8,8.5c0,3-0.6,5.9-1.7,8.6
				c-1.1,2.6-2.8,4.7-4.9,6.3c-2.1,1.5-4.5,2.3-7.3,2.3c-3.4,0-6.6-1.4-9.5-4.3v3.8h-16v-7.6h5.7V28.6h-5.7V21h16v18.1
				C119.1,36.1,122.2,34.6,125.7,34.6L125.7,34.6z M122.9,60.6c2,0,3.5-0.8,4.7-2.5c1.1-1.7,1.7-3.9,1.7-6.6c0-2.8-0.6-4.8-1.7-6.3
				c-1.1-1.4-2.7-2.1-4.6-2.1c-1.9,0-3.6,0.8-4.8,2.4c-1.1,1.6-1.7,3.8-1.7,6.5c0,2.5,0.6,4.6,1.8,6.2
				C119.3,59.8,120.9,60.6,122.9,60.6L122.9,60.6z"/>
			<path fill="#1D2833" d="M164.8,60.7v7.6h-20.2v-7.6h5V43h-5v-7.7h15.3v25.4C159.9,60.7,164.8,60.7,164.8,60.7z M160.6,26
				c0,1.7-0.6,3.1-1.7,4.2c-1.1,1.1-2.5,1.6-4,1.6c-1.6,0-2.9-0.6-4.1-1.7c-1.1-1.1-1.7-2.5-1.7-4.1s0.6-2.9,1.7-4.1
				c1.1-1.1,2.5-1.7,4.1-1.7s2.9,0.6,4,1.7C160.1,23,160.6,24.4,160.6,26z"/>
			<path fill="#1D2833" d="M189,35.3V43h-6v25.6c0,1,0.2,1.8,0.6,2.3c0.4,0.5,1.1,0.8,2.2,0.8c0.9,0,2-0.2,3.2-0.7v7.3
				c-2.8,1.1-5.4,1.7-7.9,1.7c-2.8,0-5-0.7-6.4-2.2s-2.1-3.5-2.1-6.2V43h-4.1v-7.7h4.1v-5.1l10.4-7.5v12.6H189z"/>
			<path fill="#1BCF6E" d="M55.3,71.7H36.6c-1,0-1.9,0.8-1.9,1.9v18.9c0,1,0.8,1.9,1.9,1.9h18.7c1,0,1.9-0.8,1.9-1.9V73.6
				C57.1,72.5,56.3,71.7,55.3,71.7z"/>
			<path opacity="0.25" fill="#1BCF6E" enable-background="new    " d="M163,71.7h-18.7c-1,0-1.9,0.8-1.9,1.9v18.9
				c0,1,0.8,1.9,1.9,1.9H163c1,0,1.9-0.8,1.9-1.9V73.6C164.8,72.5,164,71.7,163,71.7z"/>
			<path opacity="0.5" fill="#1BCF6E" enable-background="new    " d="M136,71.7h-18.7c-1,0-1.9,0.8-1.9,1.9v18.9
				c0,1,0.8,1.9,1.9,1.9H136c1,0,1.9-0.8,1.9-1.9V73.6C137.9,72.5,137.1,71.7,136,71.7z"/>
			<path opacity="0.75" fill="#1BCF6E" enable-background="new    " d="M109.1,71.7H90.4c-1,0-1.9,0.8-1.9,1.9v18.9
				c0,1,0.8,1.9,1.9,1.9h18.7c1,0,1.9-0.8,1.9-1.9V73.6C111,72.5,110.1,71.7,109.1,71.7z"/>
			<path fill="#1BCF6E" d="M82.2,71.7H63.5c-1,0-1.9,0.8-1.9,1.9v18.9c0,1,0.8,1.9,1.9,1.9h18.7c1,0,1.9-0.8,1.9-1.9V73.6
				C84.1,72.5,83.2,71.7,82.2,71.7z"/>
		</g>
	</g>
</g>
</svg>
